<svg width="45" height="45" viewBox="0 0 45 45" fill="none" xmlns="http://www.w3.org/2000/svg">
<path d="M44.7453 12.1598C44.6157 11.9708 44.4437 11.8165 44.2439 11.7099C44.044 11.6034 43.8222 11.5477 43.597 11.5475H13.602L11.3315 3.50764C10.4411 0.341767 8.32526 0 7.45747 0H1.40348C0.627518 0 0 0.645076 0 1.44108C0 2.23708 0.628225 2.88211 1.40344 2.88211H7.45672C7.64823 2.88211 8.23264 2.88211 8.63124 4.29635L16.442 33.7717C16.6116 34.3936 17.1635 34.8231 17.7931 34.8231H36.8716C37.4639 34.8231 37.9924 34.4421 38.1924 33.8696L44.917 13.4761C45.0718 13.0342 45.0075 12.5422 44.7453 12.1598ZM35.884 31.9418H18.8584L14.3908 14.4304H41.6016L35.884 31.9418ZM33.1005 37.7438C31.1487 37.7438 29.5671 39.3677 29.5671 41.3719C29.5671 43.3761 31.1487 45 33.1005 45C35.0523 45 36.6338 43.3761 36.6338 41.3719C36.6338 39.3677 35.0523 37.7438 33.1005 37.7438ZM20.3805 37.7438C18.4287 37.7438 16.8472 39.3677 16.8472 41.3719C16.8472 43.3761 18.4287 45 20.3805 45C22.3323 45 23.9138 43.3761 23.9138 41.3719C23.9138 39.3677 22.3323 37.7438 20.3805 37.7438Z" fill="#FBBB4D"/>
</svg>
