<svg width="80" height="80" viewBox="0 0 80 80" fill="none" xmlns="http://www.w3.org/2000/svg">
<path d="M76.4941 36.6847C76.6755 36.4634 76.8555 36.242 77.0221 36.0194C80.0582 31.9434 82.3809 23.9996 67.9754 23.9996C63.942 23.9996 58.7326 24.8956 53.3192 26.3875C53.2312 17.7957 49.0712 10.1985 42.6858 5.38524C42.4991 5.22658 42.3191 5.06391 42.1124 4.92791C42.1404 4.95591 42.1644 4.98791 42.1938 5.01591C37.6738 1.75311 32.2403 -0.00201101 26.6656 1.72919e-06C24.0696 1.72919e-06 21.5682 0.389328 19.1949 1.08132L19.1615 1.07198L19.1869 1.08398C14.8316 2.3548 10.8731 4.71697 7.68675 7.94653C7.68675 7.94386 7.68675 7.94119 7.68408 7.93853L7.68675 7.94653C2.92686 12.7665 0.188971 19.2246 0.0333338 25.9969L0.00933339 25.9502L0.030667 26.0315C0.0280003 26.2422 0 26.4502 0 26.6662C0 35.7807 4.58138 43.8192 11.5575 48.6298L11.5388 48.6285C11.5455 48.6298 11.5535 48.6298 11.5601 48.6325C14.4783 50.6465 17.7704 52.0557 21.2421 52.7768C24.7138 53.4979 28.2947 53.5164 31.7737 52.8311L31.7723 52.8324C35.283 57.163 37.3044 61.1349 38.3804 64.5749C35.9967 67.2868 33.3737 69.7786 30.543 72.0201C29.8923 72.5414 29.8136 73.4547 30.3737 74.0614C30.9337 74.6707 31.915 74.744 32.5683 74.22C34.923 72.3504 37.1453 70.3198 39.2191 68.1428C40.1391 74.0014 38.4191 77.6653 38.2871 77.9346C37.9871 78.5293 38.1537 79.2386 38.6964 79.6599C38.9664 79.867 39.2939 79.9854 39.6339 79.9987C39.9739 80.0121 40.3097 79.9198 40.5951 79.7346C45.0245 76.8293 48.7485 73.9814 51.8965 71.2254C52.7499 75.4813 52.1272 78.1439 52.1112 78.2039C51.9579 78.7826 52.1992 79.3866 52.7205 79.7319C52.9813 79.9002 53.2838 79.9923 53.594 79.998C53.9042 80.0036 54.2099 79.9226 54.4766 79.7639C58.2873 77.4546 61.6753 75.1147 64.6407 72.7494C64.8927 75.9373 64.3287 77.9239 64.2607 78.1479C64.0207 78.9146 64.4953 79.7159 65.3207 79.9412C65.4633 79.9799 65.6114 79.9986 65.7567 79.9986C66.4287 79.9986 67.0514 79.5893 67.2487 78.9573C67.3407 78.6653 68.3034 75.3947 67.4594 70.3641C68.5712 69.3816 69.6453 68.3574 70.6794 67.2935C70.7034 67.6135 70.8194 67.9321 71.0741 68.1841C71.3679 68.4654 71.7556 68.6278 72.1622 68.6399C72.5688 68.6519 72.9654 68.5128 73.2754 68.2495C73.3461 68.1868 77.2648 64.6269 77.2901 58.3123C78.5368 55.879 79.3568 53.4297 79.7448 50.9658C80.8915 43.7139 77.8821 38.5953 76.4941 36.6847ZM67.9754 28.0915C74.3314 28.0915 73.3781 30.1768 71.5141 32.3688C67.486 37.1073 56.4606 42.3193 46.4831 44.4672C49.9123 40.6581 52.1649 35.9373 52.9686 30.8755C58.4419 29.1875 63.8873 28.0915 67.9754 28.0915ZM65.2353 45.0379C64.8793 47.6032 63.8353 51.4364 61.0126 56.099C59.3673 53.8924 57.3366 51.6044 54.8432 49.2711C58.4353 48.1285 61.99 46.6938 65.2353 45.0379ZM46.6925 51.3471C46.4352 51.9911 46.1298 52.6937 45.7778 53.4391C45.2716 52.8685 44.7533 52.3088 44.2231 51.7604C45.0491 51.6402 45.8724 51.5024 46.6925 51.3471ZM40.1244 46.5258C38.6695 45.9432 37.2854 45.1971 35.999 44.3019L35.991 44.2939C36.231 44.1472 36.479 44.0152 36.7137 43.8592C37.6953 43.1863 38.6218 42.4364 39.4844 41.6166C39.7511 41.7993 40.0297 41.9659 40.3271 42.1086C41.7138 42.7432 43.1818 42.8166 44.5791 42.5819C43.2622 44.0749 41.766 45.3996 40.1244 46.5258ZM50.6659 26.6662C50.6659 32.5634 48.5192 37.9633 44.9751 42.1459C43.4645 42.2526 41.9751 42.0713 40.7684 41.2873C40.5824 41.1697 40.4031 41.0419 40.2311 40.9046C41.1894 39.9267 42.0591 38.8657 42.8298 37.734C46.0645 32.8781 47.3645 26.9995 47.1685 21.3303C47.0854 18.4867 46.6084 15.6683 45.7511 12.9558C45.5738 12.4238 45.3685 11.9025 45.1578 11.3838C48.7218 15.6786 50.6705 21.0852 50.6659 26.6662ZM26.6656 2.66662C33.427 2.66662 39.5324 5.4879 43.8991 10.0012C44.2978 11.0478 44.6005 12.1345 44.8565 13.2064C45.4765 15.8744 45.7178 18.621 45.6805 21.3423C45.5711 26.7689 44.2431 32.2314 41.2391 36.6687C40.563 37.6917 39.7959 38.6516 38.9471 39.5366C38.2311 38.542 37.7097 37.3647 37.2897 36.178C36.5964 34.1287 36.1084 31.9728 35.6897 29.7928L34.3964 23.2076C33.439 18.8237 32.291 14.3397 29.9603 10.3305C28.8043 8.33585 27.3203 6.49989 25.5096 5.06658C24.48 4.2811 23.36 3.62175 22.1736 3.10261C23.654 2.8171 25.1579 2.67113 26.6656 2.66662ZM21.5242 3.23594C24.6736 5.05191 27.0883 7.85453 28.6483 11.0438C30.579 14.9451 31.615 19.2623 32.5257 23.6049C33.4977 27.9395 34.151 32.4194 35.9017 36.7154C36.4337 37.9833 37.1297 39.294 38.0911 40.3739C36.972 41.4226 35.7518 42.3578 34.4484 43.1659C33.2267 42.2601 32.0451 41.3014 30.907 40.2926C27.6976 37.3873 24.7336 34.2007 21.9709 30.8528C19.1864 27.5152 16.5963 24.0202 14.2135 20.385C13.0321 18.561 11.8935 16.7077 10.8788 14.7837C10.1348 13.4171 9.46677 12.0091 8.94409 10.5385C12.28 6.86027 16.6758 4.30862 21.5242 3.23594ZM2.66669 26.6662C2.66669 20.5916 4.95339 15.0544 8.68676 10.8225C8.99876 12.3051 9.50277 13.7558 10.0294 15.1757C10.8661 17.2313 11.8375 19.2294 12.9375 21.157C15.1135 25.0236 17.6828 28.6502 20.4975 32.0741C23.3429 35.4687 26.4403 38.6793 29.9443 41.4353C31.0217 42.2886 32.147 43.0846 33.3123 43.8219C31.7645 44.6747 30.1344 45.3689 28.447 45.8939C28.419 45.9032 28.3896 45.9085 28.363 45.9165C27.2923 45.2139 26.1469 44.6459 24.9989 44.1512C21.7056 42.7419 18.3509 41.7406 15.2415 40.278C12.1135 38.8713 9.23343 37.0113 6.83874 34.5794C5.28139 33.0021 3.96937 31.1808 2.80936 29.2355C2.71605 28.3822 2.66843 27.5246 2.66669 26.6662ZM3.2307 31.7928C3.93737 33.1247 4.75072 34.4087 5.73606 35.578C8.06142 38.3967 11.1708 40.5073 14.4402 42.0153C17.7295 43.5206 21.1736 44.4579 24.4589 45.5432C25.2136 45.8045 25.9616 46.0765 26.6909 46.3845C22.9722 47.3298 19.0815 47.6912 15.1695 47.7245C12.1585 46.0738 9.5354 43.7982 7.47626 41.0504C5.41711 38.3025 3.96954 35.1461 3.2307 31.7928ZM26.6656 50.6658C22.9016 50.6658 19.3509 49.7698 16.1762 48.2178C20.3202 48.5845 24.5456 48.4205 28.6603 47.3725C28.811 47.4632 28.9696 47.5445 29.119 47.6418C30.1265 48.2826 30.9808 49.137 31.6217 50.1444C30.0216 50.4831 28.3643 50.6658 26.6656 50.6658ZM29.8403 47.0352C31.6572 46.5036 33.4094 45.7716 35.0644 44.8525C35.219 44.9365 35.3697 45.0272 35.523 45.1072C36.8817 45.7792 38.3044 46.3752 39.7711 46.7458C37.3836 48.3095 34.7349 49.4321 31.951 50.0604C31.4903 48.9026 30.7679 47.8672 29.8403 47.0352ZM35.1204 52.1524C36.031 52.2124 37.0097 52.2431 38.0617 52.2431C38.7991 52.2431 39.5631 52.2164 40.3471 52.1671C41.7286 53.4888 43.0368 54.8851 44.2658 56.3497C43.1903 58.2389 41.9889 60.0537 40.6698 61.7816C39.5204 58.8256 37.7604 55.5923 35.1204 52.1524ZM42.3324 74.956C42.7151 72.5654 42.7991 69.2521 41.7911 65.2695C43.4499 63.2876 44.9594 61.1855 46.3071 58.9803C48.6565 62.2602 50.1259 65.3055 51.0205 67.9588C48.5605 70.2228 45.6965 72.5614 42.3324 74.956ZM53.5059 65.5588C52.3672 62.6776 50.6165 59.4629 47.9578 56.0457C48.8775 54.277 49.6628 52.4416 50.3072 50.5551C50.6952 50.4591 51.0845 50.3604 51.4739 50.2564C54.8099 53.2177 57.3366 56.095 59.2273 58.8083C57.7153 60.9322 55.8352 63.1935 53.5059 65.5588ZM55.4966 75.6347C55.5232 73.9054 55.3379 71.5587 54.5792 68.7694C57.1646 66.2855 59.2833 63.8935 61.01 61.6256C62.6273 64.4669 63.574 67.0735 64.1007 69.3361C61.5953 71.4467 58.7299 73.548 55.4966 75.6347ZM66.6794 67.0255C65.9434 64.5669 64.762 61.8309 62.9353 58.9056C66.7407 53.1324 68.0274 48.3458 68.4034 45.1765C72.5474 50.1364 74.0221 54.275 74.2261 57.5323C72.5248 60.7096 70.0047 63.8789 66.6794 67.0255ZM76.6515 50.6191C76.5528 51.2351 76.4115 51.8511 76.2501 52.4657C75.1981 49.4551 73.2368 46.0645 69.9287 42.3313C71.4905 41.32 72.9678 40.1838 74.3461 38.934C75.5835 40.8566 77.5661 44.9645 76.6515 50.6191Z" fill="#5E5A5A"/>
</svg>
