<svg width="80" height="80" viewBox="0 0 80 80" fill="none" xmlns="http://www.w3.org/2000/svg">
<path d="M63.4 16.5701C58.7674 11.9318 52.8631 8.77173 46.4341 7.48983C40.0051 6.20792 33.3403 6.86174 27.283 9.36857C21.2256 11.8754 16.048 16.1226 12.4051 21.5728C8.76215 27.023 6.81769 33.4312 6.81769 39.9868C6.81769 46.5423 8.76215 52.9506 12.4051 58.4008C16.048 63.851 21.2256 68.0982 27.283 70.605C33.3403 73.1118 40.0051 73.7656 46.4341 72.4837C52.8631 71.2018 58.7674 68.0418 63.4 63.4034C69.6055 57.1903 73.091 48.7681 73.091 39.9868C73.091 31.2055 69.6055 22.7833 63.4 16.5701ZM18.9333 18.9368C24.2991 13.5741 31.5165 10.4724 39.1 10.2701C38.9083 17.8528 35.7908 25.0674 30.4 30.4034C25.0764 35.8124 17.8541 38.9333 10.2667 39.1034C10.4625 31.5186 13.5652 24.2989 18.9333 18.9368ZM10.3333 42.4368C18.7819 42.2466 26.826 38.7804 32.7667 32.7701C38.7687 26.8238 42.2334 18.7833 42.4333 10.3368C48.9044 10.8531 55.028 13.4758 59.8667 17.8034L17.8 59.8368C13.4734 55.0106 10.8502 48.8978 10.3333 42.4368ZM37.6 69.6701C31.1268 69.1625 25.0005 66.5387 20.1667 62.2034L62.2 20.1368C66.5339 24.9846 69.157 31.1208 69.6667 37.6034C61.226 37.8065 53.1871 41.2501 47.2169 47.2204C41.2467 53.1906 37.8031 61.2294 37.6 69.6701ZM61.0667 61.0368C55.7219 66.4148 48.5127 69.53 40.9333 69.7368C41.112 62.1547 44.2037 54.9327 49.5665 49.5699C54.9293 44.2071 62.1513 41.1155 69.7333 40.9368C69.53 48.5005 66.4272 55.6967 61.0667 61.0368Z" fill="black"/>
</svg>
