<svg width="80" height="80" viewBox="0 0 80 80" fill="none" xmlns="http://www.w3.org/2000/svg">
<path d="M20.7417 0L17.0596 0.604096C17.404 8.74633 18.2252 17.2576 17.7219 24.6913C17.1921 32.5776 15.3642 39.402 9.00662 43.2668V80H70.9934V43.2668C64.6358 39.402 62.8079 32.5776 62.2781 24.6913C61.7748 17.2576 62.596 8.74633 62.9404 0.604096L59.2583 0C58.9669 3.84393 57.8543 8.01166 55.4172 11.5335C52.5563 15.6734 47.4172 19.0682 40 19.0682C32.5828 19.0682 27.4437 15.6734 24.5828 11.5335C22.1457 8.01166 21.0331 3.84393 20.7417 0ZM25.5629 0.579723C25.9338 3.91879 26.9934 7.45283 28.9272 10.2383C31.3642 13.7584 34.702 15.9345 40 15.9345C45.298 15.9345 48.6358 13.7584 51.0728 10.2383C53.0066 7.45283 54.0662 3.91879 54.4371 0.579723C48.1854 2.61136 44.2384 3.74818 40 3.74818C35.7616 3.74818 31.8146 2.61136 25.5629 0.579723ZM12.3179 1.3788L8.50331 2.00553C8.60927 8.55483 9.50993 15.743 9.00662 22.4455C8.47682 29.3221 6.4106 35.7809 0 40.3595V80H4.23841V41.8219L5.13907 41.3518C10.1192 38.7056 12.4238 32.508 12.9536 24.552C13.4305 17.571 12.6887 9.38176 12.3179 1.3788ZM67.6821 1.3788C67.3113 9.38176 66.5695 17.571 67.0464 24.552C67.5762 32.508 69.8808 38.7056 74.8609 41.3518L75.7616 41.8219V80H80V40.3595C73.5894 35.7809 71.5232 29.3221 70.9934 22.4455C70.4901 15.743 71.3907 8.55483 71.4967 2.00553L67.6821 1.3788ZM50.4371 34.2141C52.9271 34.2141 54.8874 34.7015 56.3444 35.6765C57.8013 36.6514 58.5166 37.957 58.5166 39.5761C58.5166 40.6555 58.1192 41.7 57.351 42.7097C56.5828 43.7195 55.3907 44.7466 53.8278 45.7911C51.6291 47.2709 50.1192 48.3155 49.351 48.9596C48.5828 49.6037 48.0265 50.2479 47.6821 50.9268H58.9139V54.3216H41.9868V51.4665C42.543 50.3871 43.3642 49.3078 44.4238 48.2284C45.4834 47.1316 47.0199 45.8956 49.0596 44.4855C50.6225 43.3887 51.6556 42.6227 52.1324 42.1875C52.6093 41.7696 52.9801 41.3692 53.245 40.9688C53.5099 40.5684 53.6424 40.168 53.6424 39.7676C53.6424 39.0538 53.3775 38.5141 52.8477 38.1137C52.2914 37.7133 51.4967 37.5044 50.4636 37.5044C49.4305 37.5044 48.6623 37.7481 48.106 38.2182C47.5497 38.6882 47.2053 39.3846 47.0464 40.3421L42.1987 40.1158C42.4636 38.1834 43.3113 36.721 44.7152 35.7287C46.1192 34.719 48.0265 34.2141 50.4371 34.2141ZM30.2252 34.5275H35.6291V47.0446H38.8609V50.1086H35.6291V54.3216H31.0464V50.1086H20.0265V47.0098L30.2252 34.5275ZM31.1788 38.1137C30.8874 38.6534 30.3576 39.4368 29.5629 40.4814L24.0795 47.0446H31.0464V41.0036C31.0464 40.4814 31.0464 39.9069 31.0728 39.2975C31.1258 38.6882 31.1523 38.2878 31.1788 38.1137Z" fill="black"/>
</svg>
