<svg width="84" height="82" viewBox="0 0 84 82" fill="none" xmlns="http://www.w3.org/2000/svg">
<path d="M60.3784 28C63.2456 28 65.9954 26.9464 68.0228 25.0711C70.0503 23.1957 71.1892 20.6522 71.1892 18C71.1892 15.3478 70.0503 12.8043 68.0228 10.9289C65.9954 9.05357 63.2456 8 60.3784 8C57.5112 8 54.7615 9.05357 52.734 10.9289C50.7066 12.8043 49.5676 15.3478 49.5676 18C49.5676 20.6522 50.7066 23.1957 52.734 25.0711C54.7615 26.9464 57.5112 28 60.3784 28Z" fill="#C0C0C0" stroke="black" stroke-width="4" stroke-miterlimit="2"/>
<path d="M40.9188 76L58.454 71.88C60.1405 71.5 60.6594 69.5 59.3621 68.44L50.1405 61.22L40.9188 54L49.5675 38L27.0594 30.52C25.9783 30.16 25.1134 29.44 24.6161 28.48L14.9729 12" fill="#E4E4E4"/>
<path d="M40.9188 76L58.454 71.88C60.1405 71.5 60.6594 69.5 59.3621 68.44L50.1405 61.22L40.9188 54L49.5675 38L27.0594 30.52C25.9783 30.16 25.1134 29.44 24.6161 28.48L14.9729 12" stroke="black" stroke-width="4" stroke-miterlimit="2" stroke-linecap="round" stroke-linejoin="round"/>
<path d="M40.9189 54L25.8486 71.58C25.3946 72.08 24.8324 72.48 24.1838 72.72L2 80M49.5676 38L70.973 43.58C71.9892 43.86 72.8757 44.46 73.4378 45.28L82 58" fill="#DFDFDF"/>
<path d="M40.9189 54L25.8486 71.58C25.3946 72.08 24.8324 72.48 24.1838 72.72L2 80M49.5676 38L70.973 43.58C71.9892 43.86 72.8757 44.46 73.4378 45.28L82 58" stroke="black" stroke-width="4" stroke-miterlimit="2" stroke-linecap="round" stroke-linejoin="round"/>
<path d="M30.1081 12C31.8285 12 33.4783 11.3679 34.6948 10.2426C35.9112 9.11742 36.5946 7.5913 36.5946 6C36.5946 4.4087 35.9112 2.88258 34.6948 1.75736C33.4783 0.632141 31.8285 0 30.1081 0C28.3878 0 26.7379 0.632141 25.5215 1.75736C24.305 2.88258 23.6216 4.4087 23.6216 6C23.6216 7.5913 24.305 9.11742 25.5215 10.2426C26.7379 11.3679 28.3878 12 30.1081 12Z" fill="black"/>
</svg>
